:SAMPLES-PER-SECOND 30
:FULLY-SPECIFIED
:DEGREES
399
root  -4.10004 40.377 12.6051 -177.791 1.56734 -179.617
RightUpLeg  -2.71547 -7.03028 -8.0498
RightLeg  0.227145 10.6692 -1.77433
RightFoot  1.2733 -0.842403 7.68844
RightToes  -5.8209e-011 0 -3.6325e-017
Spine  8.76136 2.5032 0.901773
Spine1  19.5386 2.39933 0.658949
HEad  11.8122 -14.267 2.12882
LeftShoulder1  6.64813 -14.4718 -30.9586
LeftArm  11.7166 4.38558 -43.2692
LeftForeArm  21.2653 -41.5061 -8.51103
LeftHand  -0.246645 0.021 5.37786
RightShoulder  7.58784 15.241 34.505
RightArm  41.8812 14.6745 35.5672
RightForeArm  8.67842 27.3657 5.4356
RightHand  -0.24729 -0.0210522 -5.37781
LeftUpLeg  -5.06022 9.07646 5.02474
LeftLeg  6.28249 9.95271 -3.29266
LeftFoot  -1.47787 0.153195 -1.67156
LeftToes  -7.45818e-011 -3.37383e-011 1.08613e-011
400
root  -3.76912 40.4006 12.724 -177.547 1.23659 179.963
RightUpLeg  -3.18079 -6.93666 -7.80981
RightLeg  0.406231 9.71542 -1.8319
RightFoot  1.18294 -0.737345 6.78543
RightToes  -5.8209e-011 0 -3.6325e-017
Spine  9.75485 2.42357 1.79229
Spine1  19.3715 2.45065 0.629962
HEad  11.6447 -14.3359 2.01269
LeftShoulder1  6.74598 -14.6041 -31.2302
LeftArm  12.8903 2.43507 -43.903
LeftForeArm  20.5139 -40.8534 -8.35139
LeftHand  -0.246645 0.021 5.37786
RightShoulder  7.75321 15.451 34.9208
RightArm  41.3447 15.631 35.6838
RightForeArm  4.29213 26.1478 5.38858
RightHand  -0.24729 -0.0210522 -5.37781
LeftUpLeg  -5.02739 8.98295 5.07552
LeftLeg  5.13076 9.70999 -3.57657
LeftFoot  -0.516924 0.201941 -2.09847
LeftToes  -7.45818e-011 -3.37383e-011 1.08613e-011
401
root  -3.41658 40.4172 12.8519 -177.343 0.749573 179.752
RightUpLeg  -3.89492 -6.71167 -7.39708
RightLeg  1.23697 8.90431 -1.79985
RightFoot  1.02892 -0.699697 6.51394
RightToes  -5.8209e-011 0 -3.6325e-017
Spine  10.7712 2.26915 3.16978
Spine1  19.2857 2.54467 0.36697
HEad  11.5658 -14.6511 1.77548
LeftShoulder1  6.88684 -14.7948 -31.6128
LeftArm  14.3019 0.231673 -44.4775
LeftForeArm  19.5297 -39.9826 -8.14255
LeftHand  -0.246645 0.021 5.37786
RightShoulder  7.89524 15.6087 35.3185
RightArm  40.87 16.9317 35.8859
RightForeArm  -1.5738 24.5956 5.33454
RightHand  -0.24729 -0.0210522 -5.37781
LeftUpLeg  -5.1743 8.93564 5.32527
LeftLeg  4.32939 9.17216 -3.68617
LeftFoot  0.367336 0.260702 -2.56519
LeftToes  -7.45818e-011 -3.37383e-011 1.08613e-011
402
root  -3.0396 40.424 12.9804 -177.222 0.168686 179.734
RightUpLeg  -4.54978 -6.37392 -6.79338
RightLeg  2.19799 8.02703 -1.71025
RightFoot  0.810116 -0.642475 6.08097
RightToes  -5.8209e-011 0 -3.6325e-017
Spine  11.8389 2.09291 4.75479
Spine1  19.2526 2.65258 0.0952111
HEad  11.469 -14.9504 1.61442
LeftShoulder1  7.03555 -14.996 -32.0076
LeftArm  15.9163 -2.19678 -45.198
LeftForeArm  18.6186 -38.8145 -7.84519
LeftHand  -0.246645 0.021 5.37786
RightShoulder  7.95129 15.6729 35.4689
RightArm  39.8072 18.5036 36.3113
RightForeArm  -6.85183 22.7028 5.58401
RightHand  -0.24729 -0.0210522 -5.37781
LeftUpLeg  -5.47722 8.94585 5.755
LeftLeg  3.96874 8.49997 -3.59094
LeftFoot  1.08291 0.320559 -3.00625
LeftToes  -7.45818e-011 -3.37383e-011 1.08613e-011
403
root  -2.63181 40.4253 13.109 -177.195 -0.4944 179.755
RightUpLeg  -5.04036 -6.04069 -6.12945
RightLeg  3.04131 6.95563 -1.59633
RightFoot  0.539983 -0.560446 5.41662
RightToes  -5.8209e-011 0 -3.6325e-017
Spine  12.9829 1.94189 6.14255
Spine1  19.215 2.70833 0.0927707
HEad  11.2687 -15.1194 1.73148
LeftShoulder1  7.13251 -15.137 -32.2395
LeftArm  17.6994 -4.72141 -46.2394
LeftForeArm  17.8602 -37.4717 -7.49773
LeftHand  -0.246645 0.021 5.37786
RightShoulder  7.95564 15.7101 35.4116
RightArm  36.0829 20.2322 36.6929
RightForeArm  -8.13983 20.5387 6.95232
RightHand  -0.24729 -0.0210522 -5.37781
LeftUpLeg  -5.82364 8.96591 6.24236
LeftLeg  3.84606 7.7944 -3.39777
LeftFoot  1.71577 0.379343 -3.40577
LeftToes  -7.45818e-011 -3.37383e-011 1.08613e-011
404
root  -2.19605 40.4227 13.2443 -177.16 -1.3483 179.778
RightUpLeg  -5.50693 -5.79865 -5.46329
RightLeg  3.83596 5.72358 -1.44392
RightFoot  0.288815 -0.478526 4.71512
RightToes  -5.8209e-011 0 -3.6325e-017
Spine  14.11 1.75347 7.32995
Spine1  19.1113 2.65944 0.302131
HEad  10.9992 -15.3008 2.09626
LeftShoulder1  7.15234 -15.2101 -32.195
LeftArm  19.721 -7.19352 -47.5764
LeftForeArm  17.0858 -36.1825 -7.17947
LeftHand  -0.246645 0.021 5.37786
RightShoulder  7.98109 15.7828 35.3867
RightArm  30.878 21.9775 36.83
RightForeArm  -6.8859 18.3138 8.67393
RightHand  -0.24729 -0.0210522 -5.37781
LeftUpLeg  -6.31508 8.97583 6.74514
LeftLeg  3.8618 6.9441 -3.19365
LeftFoot  2.35526 0.441008 -3.79092
LeftToes  -7.45818e-011 -3.37383e-011 1.08613e-011
405
root  -1.75906 40.3931 13.3898 -177.013 -2.52165 179.903
RightUpLeg  -6.20771 -5.66537 -4.75484
RightLeg  4.91459 4.35315 -1.20619
RightFoot  -0.0627965 -0.395303 3.9944
RightToes  -5.8209e-011 0 -3.6325e-017
Spine  15.1286 1.40518 8.70118
Spine1  18.8818 2.499 0.440548
HEad  10.6657 -15.616 2.55934
LeftShoulder1  7.14328 -15.2914 -31.9799
LeftArm  22.091 -9.56994 -49.0025
LeftForeArm  16.1795 -35.0222 -6.9155
LeftHand  -0.246645 0.021 5.37786
RightShoulder  8.02775 15.8606 35.4592
RightArm  25.2353 23.6448 36.7863
RightForeArm  -4.93459 16.0988 10.2027
RightHand  -0.24729 -0.0210522 -5.37781
LeftUpLeg  -7.33277 9.12518 7.27024
LeftLeg  4.45971 5.63592 -2.916
LeftFoot  2.77679 0.501819 -4.18923
LeftToes  -7.45818e-011 -3.37383e-011 1.08613e-011
406
root  -1.34778 40.3194 13.5419 -176.789 -3.96945 -179.923
RightUpLeg  -7.23018 -5.62133 -4.09253
RightLeg  6.49548 2.84732 -0.927775
RightFoot  -0.71102 -0.310686 3.28505
RightToes  -5.8209e-011 0 -3.6325e-017
Spine  16.0007 0.888597 10.2953
Spine1  18.6004 2.27196 0.319769
HEad  10.2231 -16.0282 3.06638
LeftShoulder1  7.1817 -15.4583 -31.8452
LeftArm  24.7519 -11.9899 -50.3333
LeftForeArm  15.1004 -33.7737 -6.64677
LeftHand  -0.246645 0.021 5.37786
RightShoulder  8.05298 15.9087 35.4853
RightArm  19.565 25.1479 36.7348
RightForeArm  -2.91176 14.0038 11.3439
RightHand  -0.24729 -0.0210522 -5.37781
LeftUpLeg  -8.94975 9.73677 7.6282
LeftLeg  5.85058 3.52373 -2.49831
LeftFoot  2.83277 0.55608 -4.61098
LeftToes  -7.45818e-011 -3.37383e-011 1.08613e-011
407
root  -0.973787 40.2417 13.6971 -176.615 -5.43921 -179.826
RightUpLeg  -8.18576 -5.63597 -3.56915
RightLeg  7.97774 1.3525 -0.756125
RightFoot  -1.37046 -0.247633 2.73142
RightToes  -5.8209e-011 0 -3.6325e-017
Spine  16.767 0.338787 11.8345
Spine1  18.522 2.04809 0.0765008
HEad  9.7283 -16.4676 3.64063
LeftShoulder1  7.28808 -15.7022 -31.9157
LeftArm  27.4389 -14.6352 -51.6995
LeftForeArm  13.7398 -32.1009 -6.29489
LeftHand  -0.246645 0.021 5.37786
RightShoulder  8.06046 15.9669 35.4002
RightArm  14.5282 26.521 36.6495
RightForeArm  -1.07976 12.2821 12.0003
RightHand  -0.24729 -0.0210522 -5.37781
LeftUpLeg  -10.6015 10.5402 7.73121
LeftLeg  7.28843 1.13323 -2.09877
LeftFoot  2.95072 0.615338 -5.04937
LeftToes  -7.45818e-011 -3.37383e-011 1.08613e-011
408
root  -0.628707 40.1884 13.8552 -176.583 -6.66681 -179.87
RightUpLeg  -8.88902 -5.64828 -3.19806
RightLeg  9.13715 0.0994937 -0.727379
RightFoot  -1.83124 -0.205812 2.32384
RightToes  -5.8209e-011 0 -3.6325e-017
Spine  17.5556 -0.0996591 12.9576
Spine1  18.7198 1.88109 -0.0856194
HEad  9.32271 -16.8854 4.23715
LeftShoulder1  7.40959 -15.9445 -32.0658
LeftArm  29.9426 -17.4578 -53.4074
LeftForeArm  11.9932 -29.8467 -5.83694
LeftHand  -0.246645 0.021 5.37786
RightShoulder  8.08188 16.0652 35.3018
RightArm  10.6206 27.9096 36.4421
RightForeArm  0.472937 11.0493 12.2812
RightHand  -0.24729 -0.0210522 -5.37781
LeftUpLeg  -11.9123 11.1274 7.69577
LeftLeg  8.39841 -0.655414 -1.83318
LeftFoot  3.50765 0.693797 -5.48457
LeftToes  -7.45818e-011 -3.37383e-011 1.08613e-011
